<svg viewBox="0 0 1396 1396" xmlns="http://www.w3.org/2000/svg" fill-rule="evenodd" clip-rule="evenodd" stroke-linecap="round" stroke-linejoin="round" stroke-miterlimit="1.5"><path fill="none" d="M0 0h1395.83v1395.83H0z"/><path d="M862.403 910.14c33.379-50.545 390.987-57.092 429.137-7.857 38.14 49.236-128.75 301.967-200.28 303.277-71.52 1.31-262.236-244.874-228.857-295.42z" fill="none" stroke="#000" stroke-width="45.3" transform="matrix(1.28893 0 0 1.35921 -693.229 -286.17)"/><path d="M862.403 910.14c33.379-50.545 390.987-57.092 429.137-7.857 38.14 49.236-128.75 301.967-200.28 303.277-71.52 1.31-262.236-244.874-228.857-295.42z" stroke="#000" stroke-width="89.95" transform="matrix(.64913 0 0 .68453 -3.643 364.888)"/><text x="1531.57" y="964.332" font-family="'Phosphate-Solid','Phosphate'" font-size="60" fill="#9aa2ec" transform="matrix(4.1541 0 0 3.16274 -5728.976 -1924.004)">Z</text><ellipse cx="630.936" cy="970.292" rx="86.803" ry="141.002" fill="#fff" stroke="#000" stroke-width="49.49" transform="matrix(.5529 .72333 -.80989 .97172 763.922 -327.368)"/><ellipse cx="722.333" cy="1039.96" rx="33.413" ry="31.275" stroke="#000" stroke-width="49.49" transform="translate(-606.636 -121.392) scale(1.21247)"/><g stroke="#000" stroke-width="49.49"><ellipse cx="630.936" cy="970.292" rx="86.803" ry="141.002" fill="#fff" transform="matrix(-.5529 .72333 .80989 .97172 633.145 -344.014)"/><ellipse cx="722.333" cy="1039.96" rx="33.413" ry="31.275" transform="translate(263.214 -110.425) scale(1.21247)"/></g><path d="M1453.43 617.078c0-141.696-98.68-256.735-220.24-256.735H962.567c-121.556 0-220.244 115.039-220.244 256.735 0 141.697 98.688 256.736 220.244 256.736h270.623c121.56 0 220.24-115.039 220.24-256.736z" fill="#f2f2f2" stroke="#000" stroke-width="30.96" transform="matrix(1.37398 0 0 1.2044 -812.45 -105.641)"/><path d="M1453.43 617.078c0-141.696-98.68-256.735-220.24-256.735H962.567c-121.556 0-220.244 115.039-220.244 256.735 0 141.697 98.688 256.736 220.244 256.736h270.623c121.56 0 220.24-115.039 220.24-256.736z" stroke="#000" stroke-width="45.35" transform="matrix(1.01631 0 0 .72334 -419.778 244.335)"/><circle cx="390.208" cy="397.903" r="54.556" fill="#9aa2ec" stroke="#9aa2ec" stroke-width="28.09" transform="matrix(1.43436 0 0 1.41379 -13.635 128.14)"/><circle cx="390.208" cy="397.903" r="54.556" fill="#9aa2ec" stroke="#9aa2ec" stroke-width="28.09" transform="matrix(1.43436 0 0 1.41379 290.841 128.14)"/><path stroke="#000" stroke-width="40.05" d="M893.189 378.321h51.56V528.45h-51.56z" transform="matrix(.98323 0 0 1.01391 -385.08 -34.527)"/><path stroke="#000" stroke-width="37.47" d="M893.189 378.321h51.56V528.45h-51.56z" transform="matrix(.98323 0 0 1.1455 -22.33 -82.987)"/><path stroke="#000" stroke-width="43.18" d="M1057.29 268.25h37.006v97.735h-37.006z" transform="matrix(.85677 0 0 .9909 -225.693 -46.817)"/><circle cx="1030.74" cy="178.801" r="64.97" fill="#9aa2ec" stroke="#000" stroke-width="28.83" transform="translate(-734.308 -130.162) scale(1.38766)"/></svg>