<svg xmlns="http://www.w3.org/2000/svg" xmlns:vectornator="http://vectornator.io" viewBox="0 0 500 500" fill-rule="evenodd" clip-rule="evenodd" stroke-linecap="round" stroke-linejoin="round"><path stroke="#151413" stroke-width="10" d="M83.968 150.89h334.063c33.899 0 61.38 26.253 61.38 58.637V368.59c0 32.385-27.481 58.637-61.38 58.637H83.968c-33.9 0-61.38-26.252-61.38-58.637V209.527c0-32.384 27.48-58.637 61.38-58.637z" fill="none" vectornator:layerName="Layer 2"/><g vectornator:layerName="Layer 1" stroke="#000"><path stroke-width="5" d="M210.961 70.984c0-21.516 17.403-38.959 38.87-38.959s38.87 17.443 38.87 38.96c0 21.516-17.403 38.958-38.87 38.958s-38.87-17.442-38.87-38.959z"/><path stroke-width="2.23" d="M206.876 152.411l41.45-66.84 54.945 66.181-96.395.659z"/></g><path stroke="#000" stroke-width="9" d="M296.518 312.785c24.292-89.842 91.962-68.213 111.049-4.992" fill="none" vectornator:layerName="Eyes copy"/><path stroke="#000" stroke-width="9" d="M111.87 309.775c23.725-85.571 89.818-64.971 108.459-4.754" fill="none" vectornator:layerName="Eyes"/></svg>